/* XPM */
static char * fb_menu_editor_xpm[] = {
"49 49 726 2",
"  	c None",
". 	c #7F6E26",
"+ 	c #B2952D",
"@ 	c #C9A935",
"# 	c #826E26",
"$ 	c #4D481F",
"% 	c #887D32",
"& 	c #AE9731",
"* 	c #E9C33B",
"= 	c #F0C93C",
"- 	c #C4A536",
"; 	c #595C44",
"> 	c #938949",
", 	c #D2B035",
"' 	c #BC9E33",
") 	c #6F5E22",
"! 	c #48431A",
"~ 	c #7F752C",
"{ 	c #9E8A2F",
"] 	c #E0BC39",
"^ 	c #F1CA3D",
"/ 	c #EEC83F",
"( 	c #7A7C59",
"_ 	c #99883C",
": 	c #E5C03A",
"< 	c #D8B73F",
"[ 	c #423F27",
"} 	c #97812F",
"| 	c #B79A32",
"1 	c #6D6427",
"2 	c #8A7A2B",
"3 	c #D6B437",
"4 	c #EEC73C",
"5 	c #EDC63C",
"6 	c #B39834",
"7 	c #6B5A1E",
"8 	c #72652D",
"9 	c #877C40",
"0 	c #AA9132",
"a 	c #F2CA3D",
"b 	c #C6A93B",
"c 	c #635E31",
"d 	c #A69033",
"e 	c #E8C33B",
"f 	c #F0C93D",
"g 	c #A38A2D",
"h 	c #81722B",
"i 	c #B39831",
"j 	c #EAC43B",
"k 	c #E7C13A",
"l 	c #E1BC39",
"m 	c #E0BB38",
"n 	c #EBC43B",
"o 	c #BA9F39",
"p 	c #746B29",
"q 	c #A99B38",
"r 	c #BBA234",
"s 	c #E4C03A",
"t 	c #AC902D",
"u 	c #B0932D",
"v 	c #DDB938",
"w 	c #EBC53B",
"x 	c #DDBB3E",
"y 	c #73662E",
"z 	c #857023",
"A 	c #5A541E",
"B 	c #AC9F3A",
"C 	c #AD9B36",
"D 	c #CCAF36",
"E 	c #EFC83D",
"F 	c #EBC53C",
"G 	c #ECC53C",
"H 	c #ECC63C",
"I 	c #ECC53B",
"J 	c #E8C23C",
"K 	c #988029",
"L 	c #615D3B",
"M 	c #878153",
"N 	c #CAAA36",
"O 	c #F4CC3D",
"P 	c #9D852C",
"Q 	c #82792C",
"R 	c #9B8E33",
"S 	c #A79331",
"T 	c #D9B738",
"U 	c #EDC83C",
"V 	c #ECC63B",
"W 	c #DAB73C",
"X 	c #CCAC37",
"Y 	c #F5CD3E",
"Z 	c #6D5F27",
"` 	c #7A7230",
" .	c #9B872D",
"..	c #DDBA38",
"+.	c #EDC73C",
"@.	c #EEC83C",
"#.	c #F3D642",
"$.	c #F7E358",
"%.	c #F9EC6D",
"&.	c #FBF37E",
"*.	c #FAF072",
"=.	c #F9EA5B",
"-.	c #F6E148",
";.	c #F1D341",
">.	c #F0C83C",
",.	c #F5CC3D",
"'.	c #E0BF44",
").	c #49411C",
"!.	c #62521A",
"~.	c #383926",
"{.	c #716834",
"].	c #C9A934",
"^.	c #F1D745",
"/.	c #E8DC6D",
"(.	c #D4D294",
"_.	c #CDCDB7",
":.	c #DDDDD5",
"<.	c #F2F2EC",
"[.	c #FFFFCF",
"}.	c #FFFFA2",
"|.	c #FFFF82",
"1.	c #FFFC6A",
"2.	c #FAEE54",
"3.	c #F4D944",
"4.	c #F0C83D",
"5.	c #83702A",
"6.	c #66653F",
"7.	c #A08A31",
"8.	c #EDC83D",
"9.	c #BCA035",
"0.	c #8A7C3A",
"a.	c #AA9131",
"b.	c #EFC93D",
"c.	c #D4BF3C",
"d.	c #B4B465",
"e.	c #F4F47C",
"f.	c #FFFF7D",
"g.	c #FFFF76",
"h.	c #FFFE66",
"i.	c #F8E84D",
"j.	c #F1CF3F",
"k.	c #EFC73C",
"l.	c #EEC63B",
"m.	c #706023",
"n.	c #544F23",
"o.	c #7F742D",
"p.	c #C7A934",
"q.	c #F1CB3E",
"r.	c #F2CC3E",
"s.	c #E9C43B",
"t.	c #EEC83D",
"u.	c #C5B139",
"v.	c #B7B757",
"w.	c #F8F872",
"x.	c #F2F26F",
"y.	c #EFEF67",
"z.	c #E7DE4F",
"A.	c #DDC13C",
"B.	c #D8B536",
"C.	c #D6B335",
"D.	c #BA9D33",
"E.	c #8B802F",
"F.	c #A59434",
"G.	c #CAAD36",
"H.	c #E8C43C",
"I.	c #F3CC3E",
"J.	c #E4C941",
"K.	c #4B4B22",
"L.	c #ABAB4D",
"M.	c #A7A74D",
"N.	c #989846",
"O.	c #8E8A35",
"P.	c #877727",
"Q.	c #856F23",
"R.	c #887224",
"S.	c #8B7424",
"T.	c #55481A",
"U.	c #7C7129",
"V.	c #A79937",
"W.	c #AD9C36",
"X.	c #C0A736",
"Y.	c #E0BE3A",
"Z.	c #EEC93D",
"`.	c #F0CA3D",
" +	c #F1CE40",
".+	c #7E7529",
"++	c #131313",
"@+	c #1F1F1F",
"#+	c #444440",
"$+	c #6F6F5E",
"%+	c #858578",
"&+	c #919186",
"*+	c #979689",
"=+	c #9C998C",
"-+	c #9E9A8D",
";+	c #999587",
">+	c #8F8B7C",
",+	c #787771",
"'+	c #6B6A65",
")+	c #69665C",
"!+	c #59564D",
"~+	c #353535",
"{+	c #4D471A",
"]+	c #877C2E",
"^+	c #91832E",
"/+	c #B19930",
"(+	c #E9C43C",
"_+	c #D1B83E",
":+	c #151515",
"<+	c #242424",
"[+	c #454545",
"}+	c #5E5E5E",
"|+	c #848484",
"1+	c #9E9E9E",
"2+	c #B1B1B1",
"3+	c #AEAEAE",
"4+	c #9C9C9C",
"5+	c #8D8D8D",
"6+	c #7D7D7D",
"7+	c #6F6F6E",
"8+	c #5E5E58",
"9+	c #514E41",
"0+	c #484331",
"a+	c #4C452D",
"b+	c #534A29",
"c+	c #615322",
"d+	c #6F5F27",
"e+	c #74642C",
"f+	c #2E2B21",
"g+	c #615A21",
"h+	c #8A7E2E",
"i+	c #AB942F",
"j+	c #ECC73C",
"k+	c #F1CB3D",
"l+	c #8D7F2F",
"m+	c #1A1A1A",
"n+	c #565656",
"o+	c #797979",
"p+	c #888888",
"q+	c #9D9D9D",
"r+	c #A2A2A2",
"s+	c #909090",
"t+	c #7A7A7A",
"u+	c #626262",
"v+	c #494949",
"w+	c #3C3C38",
"x+	c #585838",
"y+	c #5E5E36",
"z+	c #6D6D34",
"A+	c #827728",
"B+	c #937B27",
"C+	c #A38829",
"D+	c #B0932C",
"E+	c #BC9D2F",
"F+	c #C7A732",
"G+	c #CCAA33",
"H+	c #867125",
"I+	c #5F5822",
"J+	c #867B2F",
"K+	c #B49A31",
"L+	c #F1CF48",
"M+	c #1E1E1E",
"N+	c #515151",
"O+	c #8F8F8F",
"P+	c #979797",
"Q+	c #8E8E8E",
"R+	c #8A8A8A",
"S+	c #898989",
"T+	c #707070",
"U+	c #4B4B4B",
"V+	c #313131",
"W+	c #090909",
"X+	c #050505",
"Y+	c #545426",
"Z+	c #959544",
"`+	c #999949",
" @	c #9E9A3A",
".@	c #9E862A",
"+@	c #A3882A",
"@@	c #B89A2E",
"#@	c #C5A532",
"$@	c #BC9D30",
"%@	c #766421",
"&@	c #635D27",
"*@	c #817732",
"=@	c #BEA233",
"-@	c #DCBF49",
";@	c #272727",
">@	c #5D5D5D",
",@	c #919191",
"'@	c #7E7E7E",
")@	c #7C7C7C",
"!@	c #828282",
"~@	c #5C5C5C",
"{@	c #2D2D2D",
"]@	c #141414",
"^@	c #0C0C0C",
"/@	c #060606",
"(@	c #303030",
"_@	c #3A3A36",
":@	c #70704C",
"<@	c #6F6F58",
"[@	c #6E6E59",
"}@	c #6D6953",
"|@	c #6C6650",
"1@	c #6B644B",
"2@	c #796C40",
"3@	c #726537",
"4@	c #3A372C",
"5@	c #252524",
"6@	c #534D23",
"7@	c #957F27",
"8@	c #B49B34",
"9@	c #B89F36",
"0@	c #DBB938",
"a@	c #A9933C",
"b@	c #373737",
"c@	c #9B9B9B",
"d@	c #838383",
"e@	c #757575",
"f@	c #393939",
"g@	c #161616",
"h@	c #181818",
"i@	c #3B3B3B",
"j@	c #666666",
"k@	c #737373",
"l@	c #858585",
"m@	c #989898",
"n@	c #8C8C8C",
"o@	c #747474",
"p@	c #6E6E6E",
"q@	c #646464",
"r@	c #51504C",
"s@	c #484744",
"t@	c #434343",
"u@	c #787133",
"v@	c #86782B",
"w@	c #D3B337",
"x@	c #F5CE3F",
"y@	c #F5CF3F",
"z@	c #CEAE34",
"A@	c #62572A",
"B@	c #595959",
"C@	c #A9A9A9",
"D@	c #959595",
"E@	c #787878",
"F@	c #717171",
"G@	c #424242",
"H@	c #333333",
"I@	c #484848",
"J@	c #A4A4A4",
"K@	c #A8A8A8",
"L@	c #9F9F9F",
"M@	c #6D6D6D",
"N@	c #505050",
"O@	c #3E3E3D",
"P@	c #4F4F38",
"Q@	c #646440",
"R@	c #7A7A3A",
"S@	c #7F712B",
"T@	c #86712A",
"U@	c #907929",
"V@	c #806D26",
"W@	c #82782D",
"X@	c #8C7E2C",
"Y@	c #D2B237",
"Z@	c #F6CF3F",
"`@	c #F3CD3E",
" #	c #D1B035",
".#	c #8F7927",
"+#	c #6B695D",
"@#	c #ABABAB",
"##	c #777777",
"$#	c #6B6B6B",
"%#	c #7F7F7F",
"&#	c #878787",
"*#	c #616161",
"=#	c #2A2A2A",
"-#	c #1D1D1D",
";#	c #101010",
">#	c #84843C",
",#	c #CACA61",
"'#	c #D5D55F",
")#	c #D4C23E",
"!#	c #D3B035",
"~#	c #D8B436",
"{#	c #D9B538",
"]#	c #83772B",
"^#	c #90812D",
"/#	c #C6A935",
"(#	c #E2C03B",
"_#	c #EBC73D",
":#	c #E3C03A",
"<#	c #A68C2C",
"[#	c #6B6241",
"}#	c #B5B4B4",
"|#	c #A7A7A7",
"1#	c #9A9A9A",
"2#	c #8B8B8B",
"3#	c #4A4A4A",
"4#	c #262626",
"5#	c #191919",
"6#	c #86863D",
"7#	c #F7F778",
"8#	c #FAFA76",
"9#	c #F7EA51",
"0#	c #EEC63C",
"a#	c #756323",
"b#	c #776E28",
"c#	c #978B35",
"d#	c #A19236",
"e#	c #A19034",
"f#	c #AA9632",
"g#	c #C6A934",
"h#	c #C8A933",
"i#	c #74652F",
"j#	c #9F9E9A",
"k#	c #B7B7B7",
"l#	c #929292",
"m#	c #7B7B7B",
"n#	c #A0A0A0",
"o#	c #656565",
"p#	c #3A3A3A",
"q#	c #1B1B1B",
"r#	c #FFFF7C",
"s#	c #FFFF7E",
"t#	c #FDF55B",
"u#	c #F2CB3E",
"v#	c #F1C93D",
"w#	c #D2B13B",
"x#	c #7F6D27",
"y#	c #706726",
"z#	c #807529",
"A#	c #A08C2C",
"B#	c #A3892B",
"C#	c #716C58",
"D#	c #BEBEBE",
"E#	c #ACACAC",
"F#	c #808080",
"G#	c #727272",
"H#	c #404040",
"I#	c #F6F676",
"J#	c #FDF65D",
"K#	c #F2CD3E",
"L#	c #F2CB3F",
"M#	c #AC9233",
"N#	c #514A1B",
"O#	c #82762A",
"P#	c #877827",
"Q#	c #816F28",
"R#	c #8E8D8C",
"S#	c #C3C3C3",
"T#	c #535353",
"U#	c #252525",
"V#	c #F2F274",
"W#	c #FFFF7F",
"X#	c #FEF961",
"Y#	c #F3CE3F",
"Z#	c #C2A434",
"`#	c #857A2C",
" $	c #766923",
".$	c #62582F",
"+$	c #B5B5B5",
"@$	c #A1A1A1",
"#$	c #EBEB71",
"$$	c #FEF860",
"%$	c #F2CE3F",
"&$	c #EFC83C",
"*$	c #CBAB36",
"=$	c #7E742B",
"-$	c #6D6324",
";$	c #584F2B",
">$	c #BCBCBC",
",$	c #BABABA",
"'$	c #767676",
")$	c #2E2E2E",
"!$	c #3F3F3F",
"~$	c #FCF359",
"{$	c #F2CB3D",
"]$	c #D7B53B",
"^$	c #9B8C46",
"/$	c #A49449",
"($	c #756526",
"_$	c #857A32",
":$	c #97832E",
"<$	c #665A2D",
"[$	c #292929",
"}$	c #F9F97A",
"|$	c #FBEC51",
"1$	c #AE9637",
"2$	c #3B4039",
"3$	c #72682B",
"4$	c #BFA334",
"5$	c #C0A231",
"6$	c #746424",
"7$	c #878786",
"8$	c #818181",
"9$	c #676767",
"0$	c #FFFF81",
"a$	c #F8E247",
"b$	c #857025",
"c$	c #8B8133",
"d$	c #96812C",
"e$	c #7D6D2D",
"f$	c #5D501F",
"g$	c #828281",
"h$	c #B4B4B4",
"i$	c #656564",
"j$	c #383529",
"k$	c #4F4F4F",
"l$	c #8B8B46",
"m$	c #FFFF8B",
"n$	c #FEFA69",
"o$	c #F4D341",
"p$	c #6A6123",
"q$	c #81762A",
"r$	c #706327",
"s$	c #645E48",
"t$	c #615F59",
"u$	c #A6A6A6",
"v$	c #868686",
"w$	c #3D3A30",
"x$	c #4A3F15",
"y$	c #6E5D20",
"z$	c #302B14",
"A$	c #282828",
"B$	c #AAAAAA",
"C$	c #5B5B5B",
"D$	c #D4D479",
"E$	c #FFFF99",
"F$	c #FAEC54",
"G$	c #8A7730",
"H$	c #7B7029",
"I$	c #726724",
"J$	c #726425",
"K$	c #5D5A48",
"L$	c #A5A5A5",
"M$	c #5B5A54",
"N$	c #544E37",
"O$	c #5B512E",
"P$	c #584E25",
"Q$	c #1C1A0F",
"R$	c #3E3E3E",
"S$	c #606060",
"T$	c #AFAFAF",
"U$	c #686868",
"V$	c #FFFFD4",
"W$	c #FEF98D",
"X$	c #F5D641",
"Y$	c #EFCA41",
"Z$	c #957F30",
"`$	c #595221",
" %	c #4A4720",
".%	c #252316",
"+%	c #999998",
"@%	c #9B9B9A",
"#%	c #9C9B97",
"$%	c #999892",
"%%	c #9A9A99",
"&%	c #969696",
"*%	c #222222",
"=%	c #CDCDC9",
"-%	c #FFFEB7",
";%	c #F8E047",
">%	c #AE9536",
",%	c #4F4E47",
"'%	c #706F6F",
")%	c #323024",
"!%	c #464232",
"~%	c #615F55",
"{%	c #787877",
"]%	c #949494",
"^%	c #939393",
"/%	c #FFFBB5",
"(%	c #F9E351",
"_%	c #E4BF3A",
":%	c #DEBA39",
"<%	c #F4CC3E",
"[%	c #A48B2E",
"}%	c #22221E",
"|%	c #3D3B34",
"1%	c #443E19",
"2%	c #695C1D",
"3%	c #796724",
"4%	c #635629",
"5%	c #595133",
"6%	c #555348",
"7%	c #5A5854",
"8%	c #585753",
"9%	c #52514D",
"0%	c #908D6D",
"a%	c #FEF399",
"b%	c #F8DC47",
"c%	c #AB963C",
"d%	c #9F9347",
"e%	c #CAB040",
"f%	c #E2BE3A",
"g%	c #433F1B",
"h%	c #82762B",
"i%	c #BA9F32",
"j%	c #D8B637",
"k%	c #C3A432",
"l%	c #AE932D",
"m%	c #9B832B",
"n%	c #907B29",
"o%	c #8D7828",
"p%	c #947E2A",
"q%	c #A38B2E",
"r%	c #97822D",
"s%	c #6C5E20",
"t%	c #AFA041",
"u%	c #F9DF54",
"v%	c #F4D140",
"w%	c #B29631",
"x%	c #5D5B39",
"y%	c #818660",
"z%	c #959664",
"A%	c #776B31",
"B%	c #887F32",
"C%	c #B39E35",
"D%	c #EBC73C",
"E%	c #F7D03F",
"F%	c #E7C43B",
"G%	c #E5C23B",
"H%	c #E3BF3A",
"I%	c #F5D040",
"J%	c #F7D343",
"K%	c #EECD41",
"L%	c #F7D443",
"M%	c #F5D140",
"N%	c #E5C03C",
"O%	c #9C8F35",
"P%	c #AF9831",
"Q%	c #F8D240",
"R%	c #F4CE3F",
"S%	c #C1A73A",
"T%	c #C5A935",
"U%	c #E6C33B",
"V%	c #F4CE3E",
"W%	c #F5CE3E",
"X%	c #F4CD3E",
"Y%	c #EAC640",
"Z%	c #524B1B",
"`%	c #7C7229",
" &	c #817529",
".&	c #B09830",
"+&	c #EAC63D",
"@&	c #BEA437",
"#&	c #7D7534",
"$&	c #877B2F",
"%&	c #A48F2F",
"&&	c #EAC43C",
"*&	c #B19633",
"=&	c #4E481B",
"-&	c #7C722C",
";&	c #8B7B2E",
">&	c #4A451C",
",&	c #756C29",
"'&	c #7D7229",
")&	c #99872C",
"!&	c #DDBC3A",
"~&	c #EAC53C",
"{&	c #D1B137",
"]&	c #AC9636",
"^&	c #B8A035",
"/&	c #6F6023",
"(&	c #3A3719",
"_&	c #7F752B",
":&	c #9A8A2F",
"<&	c #DFBE3A",
"[&	c #E0BE3B",
"}&	c #D1B238",
"|&	c #DAB939",
"1&	c #E3BF3B",
"2&	c #7D6A23",
"3&	c #534C21",
"4&	c #6F692C",
"5&	c #938531",
"6&	c #C5AA36",
"7&	c #DEBB39",
"8&	c #61531D",
"9&	c #8A7F2F",
"0&	c #A59332",
"a&	c #F8D140",
"b&	c #F8D13F",
"c&	c #A49548",
"d&	c #767448",
"e&	c #857B36",
"f&	c #948530",
"g&	c #C1A635",
"h&	c #DAB83A",
"i&	c #5C5722",
"j&	c #8C8333",
"k&	c #A09033",
"l&	c #BDA233",
"m&	c #5C4D18",
"n&	c #9C9034",
"o&	c #A79432",
"p&	c #DCBB3A",
"q&	c #F2CC3F",
"r&	c #615C24",
"s&	c #948932",
"t&	c #B09C34",
"u&	c #E7C33C",
"v&	c #EFC93E",
"w&	c #6B662C",
"x&	c #5F5C2E",
"y&	c #8F8330",
"z&	c #877A2C",
"A&	c #95842D",
"B&	c #B9A035",
"C&	c #C2A534",
"D&	c #A79A38",
"E&	c #B19E37",
"F&	c #DBBA39",
"G&	c #504C22",
"H&	c #676841",
"I&	c #555537",
"J&	c #9E9235",
"K&	c #AD9E38",
"L&	c #B49D34",
"M&	c #B59E3A",
"N&	c #988431",
"O&	c #5A5420",
"P&	c #67622D",
"Q&	c #4B4B2E",
"                                                                                                  ",
"                                                                                                  ",
"                                    . + @ #                                                       ",
"                                $ % & * = -       ; > , ' )                                       ",
"                                ! ~ { ] ^ /       ( _ : = <                                       ",
"                      [ } |       1 2 3 4 5 6 7 8 9 0 5 a b                                       ",
"                    c d e f g     h i ] j j j j k l m n 5 o                                       ",
"                  p q r s ^ ^ t u v w w w w w w w n n n n x         y z                           ",
"                  A B C D E 4 w F G H H H H H I I I I I I w J K L M N O P                         ",
"                    Q R S T F H H 5 5 5 5 5 5 U 5 5 5 H V I I I W X = Y Y Z                       ",
"                      `  ...H 5 +.+.4 @.#.$.%.&.*.=.-.;.+.5 5 5 5 5 >.,.'.                        ",
"              ).!.  ~.{.].+.+.+.4 @.^./.(._.:.<.[.}.|.1.2.3.4 4 4 4 4 4.5.                        ",
"            6.7.8.9.0.a.H +.@.@.b.c.              d.e.f.g.h.i.j.k.l.l.l.m.                        ",
"          n.o.p.q.r.F s.@.t.b.b.u.                    v.w.x.y.z.A.B.C.B.D.                        ",
"          E.F.G.H.I.b.t.E b.f J.                        K.L.M.N.O.P.Q.R.S.T.                      ",
"          U.V.W.X.Y.Z.b.b.`. +.+                      ++@+#+$+%+&+*+=+-+;+>+,+'+)+!+~+            ",
"            {+]+^+/+(+b.`.^ _+              :+<+[+}+|+1+2+3+4+5+6+7+8+9+0+a+b+c+d+e+f+            ",
"              g+h+i+j+`.^ k+l+          m+n+o+p+q+r+q+s+t+u+v+w+x+y+z+A+B+C+D+E+F+G+H+            ",
"              I+J+K+`.k+q.L+        M+N+O+P+Q+5+R+S+T+U+V+:+W+X+Y+Z+`+ @.@+@t @@#@$@%@            ",
"              &@*@=@q.q.r.-@    ;@>@,@P+'@)@!@6+~@{@]@^@/@]@@+(@_@:@<@[@}@|@1@2@3@4@5@            ",
"          6@7@8@9@0@q.r.H a@  b@5+c@d@e@)@6+u+f@g@h@i@j@k@l@Q+m@q+P+n@)@o@p@q@r@s@t@f@            ",
"        u@v@w@x@y@r.r.F z@A@B@C@D@'@E@6+F@G@H@I@!@J@K@L@P+s+|+M@N@O@P@Q@R@S@T@U@V@                ",
"        W@X@Y@x@Z@`@t. #.#+#@#1+'@E@##$#T+%#m@J@m@s+&#o@*#[+=#-#;#  >#,#'#)#!#~#{#                ",
"        ]#^#/#(#_#b.:#<#[#}#|#p+'@d@o@1#1#D@2#5+5+p@3#4#5#          6#7#8#9#0#k.l.a#              ",
"        b#c#d#e#f#g#h#i#j#k#l#m#@#C@n#l@|+S+|+o#p#q#                  r#s#t#u#v#>.w#x#            ",
"              y#z#A#B#C#D#E#R+##R+|+F#p+2#G#H#@+                      I#s#J#K#v#>.>.Y L#M#        ",
"              N#O#P#Q#R#S#J@d@k@o@6+p+&#T#U#                          V#W#X#Y#v#>.>.,.Y Z#        ",
"                `# $.$+$D#@$%#G#)@&#e@~+;#                            #$W#$$%$v#>.&$w &$*$        ",
"                =$-$;$>$,$1+m#'$S+q@4#                    )$!$        #$W#~${$v#= ]$^$/$($        ",
"                _$:$<$2+,$c@6+|+*#[$W+                  -#k@p#        }$r#|$^ v#= 1$2$            ",
"              3$4$5$6$7$,$D@8$9$'@o@[$                h@o@o+g@        0$g.a$^ v#= b$              ",
"            c$X@d$e$f$g$h$n@i$j$i$k$                @+%#L@i@        l$m$n$o$^ f >.                ",
"            p$q$r$s$t$q+u$v$w$x$y$z$            A$T#q+B$C$;#        D$E$F$^ v#f &$G$              ",
"              H$I$J$K$J@L$4+M$N$O$P$Q$h@)$R$S$G#,@T$C@U$U#          V$W$X$^ v#f &$Y$Z$            ",
"              `$ %  .%m#r+n@4++%@%#%$%%%q+&%,@,@m@l#}+*%          =%-%;%a ^ f &$v#Y Y >%          ",
"                      ,%'%)%!%~%{%l@Q+]%^%2#!@e@T#=#;#          &%/%(%{$^ ^ f _%:%{$<%[%          ",
"                      }%|%1%2%3%4%5%6%7%8%9%_@4#;#            0%a%b%{$^ ^ f +.c%d%e%f%            ",
"                        g%h%i%j%k%l%m%n%o%p%q%r%s%          t%u%v%{$a ^ f f w%x%y%z%A%            ",
"                        B%C%D%E%r.F%G%H%f%s e +.r.I%J%K%L%M%`@I.{${$^ `.f N%                      ",
"                      I+O%P%_#Q%R%S%T%U%V%V%x@x@x@W%V%X%`@I.I.{${$^ `.f b.Y%                      ",
"                      Z%`% &.&+&@&#&$&%&w@`@R%R%V%X%X%`@I.r.u#k+^ `.E &&{$Y *&                    ",
"                        =&p -&;&  >&,&'&)&!&R%X%X%`@`@I.r.u#k+^ ~&{&]&^&(+X%<%/&                  ",
"                          (&          _&:&<&E%Z@[&}&|&Y.~&k+^ 1&2&3&4&5&6&t.7&8&                  ",
"                                      9&0&(#a&b&c&d&e&f&g&`.W%h&    i&j&k&l&m&                    ",
"                                      n&o&p&E%q&    r&s&t&u&W%v&      w&x&                        ",
"                                      y&z&A&B&C&      D&E&F&X%X%                                  ",
"                                        G&H&I&        J&K&L&M&N&                                  ",
"                                                      O&P&Q&                                      ",
"                                                                                                  "};
